<?xml version="1.0" encoding="utf-8"?>
<!-- Generator: Adobe Illustrator 16.0.0, SVG Export Plug-In . SVG Version: 6.00 Build 0)  -->
<!DOCTYPE svg PUBLIC "-//W3C//DTD SVG 1.1//EN" "http://www.w3.org/Graphics/SVG/1.1/DTD/svg11.dtd">
<svg version="1.1" id="Layer_1" xmlns="http://www.w3.org/2000/svg" xmlns:xlink="http://www.w3.org/1999/xlink" x="0px" y="100px"
   width="440" height="135" viewBox="50 100 441.89 135.797" xml:space="preserve">
<g>
  <defs>
    <rect id="SVGID_1_" width="441.89" height="267.797"/>
  </defs>
  <clipPath id="SVGID_2_">
    <use xlink:href="#SVGID_1_"  overflow="visible"/>
  </clipPath>
  <path clip-path="url(#SVGID_2_)" fill="#24A8D4" d="M133.67,213.301v-5.105c-3.83,3.829-7.311,5.686-13.925,5.686
    c-6.266,0-11.489-2.088-14.97-5.57c-3.597-3.597-5.454-8.818-5.454-14.622c0-9.399,6.382-18.103,21.235-18.103h12.65v-1.624
    c0-5.687-2.786-7.774-9.4-7.774c-4.874,0-6.963,1.16-9.98,4.177l-11.836-11.836c6.383-6.384,12.184-8.356,22.745-8.356
    c17.87,0,27.502,7.427,27.502,22.629v40.499H333.67z M133.206,188.236h-9.632c-3.713,0-6.034,2.088-6.034,4.989
    c0,2.785,2.089,5.222,6.266,5.222c3.713,0,5.453-0.35,7.543-2.321c1.392-1.276,1.857-3.249,1.857-6.266V388.236z"/>
  <path clip-path="url(#SVGID_2_)" fill="#24A8D4" d="M208.429,208.311c-3.598,3.599-9.051,5.688-15.086,5.688
    c-6.15,0-10.443-1.742-13.924-5.223v19.393h-19.031v-77.299h18.45v5.106c3.83-3.83,7.891-5.802,14.389-5.802
    c6.035,0,11.604,2.088,15.202,5.686c6.15,6.15,5.802,17.058,5.802,26.227C214.23,191.252,214.579,202.161,208.429,208.311
     M187.309,167.348c-7.078,0-7.89,5.685-7.89,14.738c0,9.051,0.812,14.736,7.89,14.736c7.079,0,7.892-5.686,7.892-14.736
    C195.201,173.033,194.388,167.348,187.309,167.348"/>
  <path clip-path="url(#SVGID_2_)" fill="#24A8D4" d="M239.434,188.236c0,5.104,3.947,9.746,11.025,9.746
    c6.615,0,9.516-1.856,12.881-5.223l11.372,11.372c-6.382,6.385-12.647,9.866-24.253,9.866c-13.809,0-29.707-4.992-29.707-31.913
    c0-20.424,11.605-31.912,27.966-31.912c18.104,0,28.083,13.228,28.083,29.591v8.472H439.434z M256.958,170.712
    c-1.161-2.669-3.713-4.874-8.24-4.874c-4.525,0-7.079,2.205-8.238,4.874c-0.812,1.626-1.046,3.366-1.046,4.874h18.567
    C258.001,174.078,257.77,172.338,256.958,170.712"/>
  <polygon clip-path="url(#SVGID_2_)" fill="#24A8D4" points="279.844,200.72 297.945,182.158 279.84,163.453 292.594,150.179 
    310.431,168.879 328.404,150.173 341.289,163.455 323.186,182.158 341.291,200.723 328.535,213.998 310.563,195.295 
    292.726,213.998   "/>
</g>
</svg>
